<!--?xml version="1.0" encoding="utf-8"?-->
<svg xmlns="http://www.w3.org/2000/svg" viewBox="0 0 500 500">
  <defs>
    <clipPath id="ba0f9d3944">
      <path d="M 169 77 L 175 77 L 175 82 L 169 82 Z M 169 77 "></path>
    </clipPath>
    <clipPath id="29ee61bb2d">
      <path d="M 59.851562 32.804688 L 224.84375 10.453125 L 241.960938 136.796875 L 76.964844 159.152344 Z M 59.851562 32.804688 "></path>
    </clipPath>
    <clipPath id="9c262a6f68">
      <path d="M 59.851562 32.804688 L 224.84375 10.453125 L 245.585938 163.554688 L 80.589844 185.90625 Z M 59.851562 32.804688 "></path>
    </clipPath>
    <clipPath id="98b126077e">
      <path d="M 59.851562 32.804688 L 224.84375 10.453125 L 245.585938 163.554688 L 80.589844 185.90625 Z M 59.851562 32.804688 "></path>
    </clipPath>
    <clipPath id="ab800bcfaa">
      <path d="M 127 83 L 132 83 L 132 88 L 127 88 Z M 127 83 "></path>
    </clipPath>
    <clipPath id="379149a417">
      <path d="M 59.851562 32.804688 L 224.84375 10.453125 L 241.960938 136.796875 L 76.964844 159.152344 Z M 59.851562 32.804688 "></path>
    </clipPath>
    <clipPath id="58afc57a88">
      <path d="M 59.851562 32.804688 L 224.84375 10.453125 L 245.585938 163.554688 L 80.589844 185.90625 Z M 59.851562 32.804688 "></path>
    </clipPath>
    <clipPath id="d3101d9ba9">
      <path d="M 59.851562 32.804688 L 224.84375 10.453125 L 245.585938 163.554688 L 80.589844 185.90625 Z M 59.851562 32.804688 "></path>
    </clipPath>
    <clipPath id="21ee4d9bd1">
      <path d="M 176 128 L 185 128 L 185 141 L 176 141 Z M 176 128 "></path>
    </clipPath>
    <clipPath id="2fc4442da9">
      <path d="M 59.851562 32.804688 L 224.84375 10.453125 L 241.960938 136.796875 L 76.964844 159.152344 Z M 59.851562 32.804688 "></path>
    </clipPath>
    <clipPath id="60ed942453">
      <path d="M 59.851562 32.804688 L 224.84375 10.453125 L 245.585938 163.554688 L 80.589844 185.90625 Z M 59.851562 32.804688 "></path>
    </clipPath>
    <clipPath id="ae07f3a773">
      <path d="M 59.851562 32.804688 L 224.84375 10.453125 L 245.585938 163.554688 L 80.589844 185.90625 Z M 59.851562 32.804688 "></path>
    </clipPath>
    <clipPath id="fab29eb078">
      <path d="M 128 134 L 138 134 L 138 146 L 128 146 Z M 128 134 "></path>
    </clipPath>
    <clipPath id="38ac30b366">
      <path d="M 59.851562 32.804688 L 224.84375 10.453125 L 241.960938 136.796875 L 76.964844 159.152344 Z M 59.851562 32.804688 "></path>
    </clipPath>
    <clipPath id="5c0ca3d084">
      <path d="M 59.851562 32.804688 L 224.84375 10.453125 L 245.585938 163.554688 L 80.589844 185.90625 Z M 59.851562 32.804688 "></path>
    </clipPath>
    <clipPath id="3fbba9f781">
      <path d="M 59.851562 32.804688 L 224.84375 10.453125 L 245.585938 163.554688 L 80.589844 185.90625 Z M 59.851562 32.804688 "></path>
    </clipPath>
    <clipPath id="369e91ddc0">
      <path d="M 68 19 L 233 19 L 233 160 L 68 160 Z M 68 19 "></path>
    </clipPath>
    <clipPath id="9844142061">
      <path d="M 59.851562 32.804688 L 224.84375 10.453125 L 241.960938 136.796875 L 76.964844 159.152344 Z M 59.851562 32.804688 "></path>
    </clipPath>
    <clipPath id="4af5970e2c">
      <path d="M 59.851562 32.804688 L 224.84375 10.453125 L 245.585938 163.554688 L 80.589844 185.90625 Z M 59.851562 32.804688 "></path>
    </clipPath>
    <clipPath id="b27ce7ecc1">
      <path d="M 59.851562 32.804688 L 224.84375 10.453125 L 245.585938 163.554688 L 80.589844 185.90625 Z M 59.851562 32.804688 "></path>
    </clipPath>
  </defs>
  <g id="6854bbff38" transform="matrix(1.020985, 0, 0, 1.012252, -8.312741, 61.700832)" style="">
    <g style="fill:#bed8fd;fill-opacity:0.4;"></g>
    <g transform="matrix(2.968794, 0, 0, 3.116297, -194.98172, -84.545143)" style="">
      <g clip-rule="nonzero" clip-path="url(#ba0f9d3944)">
        <g clip-rule="nonzero" clip-path="url(#29ee61bb2d)">
          <g clip-rule="nonzero" clip-path="url(#9c262a6f68)">
            <g clip-rule="nonzero" clip-path="url(#98b126077e)">
              <path style="stroke:none;fill-rule:nonzero;fill:#ffffff;fill-opacity:1;" d="M 172.207031 81.5 C 172.484375 81.460938 172.742188 81.371094 172.984375 81.230469 C 173.226562 81.089844 173.433594 80.910156 173.601562 80.6875 C 173.773438 80.464844 173.894531 80.21875 173.964844 79.949219 C 174.035156 79.679688 174.054688 79.40625 174.015625 79.128906 C 173.980469 78.851562 173.890625 78.59375 173.75 78.351562 C 173.609375 78.109375 173.425781 77.90625 173.203125 77.738281 C 172.980469 77.566406 172.734375 77.449219 172.460938 77.375 C 172.191406 77.304688 171.917969 77.289062 171.640625 77.328125 C 171.363281 77.363281 171.101562 77.453125 170.859375 77.59375 C 170.617188 77.734375 170.414062 77.914062 170.242188 78.136719 C 170.074219 78.359375 169.953125 78.605469 169.882812 78.875 C 169.808594 79.144531 169.792969 79.417969 169.828125 79.695312 C 169.867188 79.972656 169.957031 80.230469 170.097656 80.472656 C 170.238281 80.714844 170.417969 80.917969 170.644531 81.089844 C 170.867188 81.257812 171.113281 81.378906 171.382812 81.449219 C 171.652344 81.519531 171.929688 81.535156 172.207031 81.5 Z M 172.207031 81.5 "></path>
            </g>
          </g>
        </g>
      </g>
      <g clip-rule="nonzero" clip-path="url(#ab800bcfaa)">
        <g clip-rule="nonzero" clip-path="url(#379149a417)">
          <g clip-rule="nonzero" clip-path="url(#58afc57a88)">
            <g clip-rule="nonzero" clip-path="url(#d3101d9ba9)">
              <path style="stroke:none;fill-rule:nonzero;fill:#ffffff;fill-opacity:1;" d="M 131.21875 84.925781 C 131.253906 85.203125 131.238281 85.476562 131.167969 85.746094 C 131.09375 86.015625 130.976562 86.261719 130.804688 86.484375 C 130.636719 86.707031 130.429688 86.890625 130.1875 87.03125 C 129.945312 87.171875 129.683594 87.257812 129.40625 87.296875 C 129.128906 87.335938 128.855469 87.316406 128.585938 87.246094 C 128.3125 87.175781 128.066406 87.054688 127.84375 86.886719 C 127.621094 86.71875 127.441406 86.511719 127.300781 86.269531 C 127.160156 86.03125 127.070312 85.769531 127.03125 85.496094 C 126.996094 85.21875 127.011719 84.945312 127.082031 84.675781 C 127.15625 84.40625 127.273438 84.160156 127.445312 83.9375 C 127.613281 83.714844 127.820312 83.53125 128.0625 83.390625 C 128.304688 83.25 128.566406 83.160156 128.84375 83.125 C 129.121094 83.085938 129.394531 83.105469 129.664062 83.175781 C 129.9375 83.246094 130.183594 83.367188 130.40625 83.535156 C 130.628906 83.703125 130.808594 83.910156 130.949219 84.148438 C 131.089844 84.390625 131.179688 84.652344 131.21875 84.925781 Z M 131.21875 84.925781 "></path>
            </g>
          </g>
        </g>
      </g>
      <g clip-rule="nonzero" clip-path="url(#21ee4d9bd1)">
        <g clip-rule="nonzero" clip-path="url(#2fc4442da9)">
          <g clip-rule="nonzero" clip-path="url(#60ed942453)">
            <g clip-rule="nonzero" clip-path="url(#ae07f3a773)">
              <path style="stroke:none;fill-rule:nonzero;fill:#ffffff;fill-opacity:1;" d="M 182.550781 128.9375 C 182.210938 128.8125 181.859375 128.753906 181.5 128.757812 C 181.136719 128.765625 180.789062 128.839844 180.457031 128.976562 C 180.121094 129.117188 179.824219 129.308594 179.5625 129.5625 C 179.304688 129.8125 179.097656 130.101562 178.949219 130.429688 L 176.488281 136.507812 C 176.363281 136.84375 176.300781 137.195312 176.308594 137.554688 C 176.316406 137.914062 176.386719 138.261719 176.527344 138.59375 C 176.664062 138.929688 176.859375 139.222656 177.113281 139.484375 C 177.363281 139.742188 177.652344 139.945312 177.984375 140.09375 C 178.4375 140.285156 178.90625 140.34375 179.390625 140.277344 C 179.875 140.203125 180.3125 140.019531 180.703125 139.722656 C 181.09375 139.421875 181.386719 139.050781 181.582031 138.601562 L 184.042969 132.527344 C 184.171875 132.1875 184.230469 131.839844 184.226562 131.476562 C 184.21875 131.117188 184.144531 130.769531 184.007812 130.4375 C 183.867188 130.105469 183.671875 129.808594 183.421875 129.550781 C 183.171875 129.289062 182.878906 129.085938 182.550781 128.9375 Z M 182.550781 128.9375 "></path>
            </g>
          </g>
        </g>
      </g>
      <g clip-rule="nonzero" clip-path="url(#fab29eb078)">
        <g clip-rule="nonzero" clip-path="url(#38ac30b366)">
          <g clip-rule="nonzero" clip-path="url(#5c0ca3d084)">
            <g clip-rule="nonzero" clip-path="url(#3fbba9f781)">
              <path style="stroke:none;fill-rule:nonzero;fill:#ffffff;fill-opacity:1;" d="M 133.578125 136.578125 C 133.484375 136.382812 133.375 136.203125 133.238281 136.035156 C 133.105469 135.867188 132.957031 135.714844 132.789062 135.578125 C 132.621094 135.445312 132.441406 135.332031 132.246094 135.238281 C 132.054688 135.144531 131.851562 135.074219 131.640625 135.023438 C 131.433594 134.976562 131.21875 134.953125 131.003906 134.953125 C 130.789062 134.953125 130.578125 134.976562 130.367188 135.023438 C 130.15625 135.070312 129.953125 135.140625 129.761719 135.234375 C 129.566406 135.328125 129.386719 135.441406 129.21875 135.574219 C 129.046875 135.710938 128.898438 135.859375 128.765625 136.027344 C 128.628906 136.195312 128.515625 136.378906 128.421875 136.570312 C 128.332031 136.765625 128.261719 136.964844 128.214844 137.175781 C 128.164062 137.386719 128.144531 137.597656 128.144531 137.8125 C 128.144531 138.027344 128.167969 138.238281 128.21875 138.445312 C 128.265625 138.65625 128.339844 138.855469 128.433594 139.050781 C 128.527344 139.242188 128.644531 139.421875 128.777344 139.589844 C 128.914062 139.753906 129.066406 139.90625 129.234375 140.039062 L 133.195312 145.242188 C 133.449219 145.449219 133.726562 145.609375 134.035156 145.71875 C 134.339844 145.828125 134.65625 145.886719 134.984375 145.886719 C 135.3125 145.890625 135.628906 145.839844 135.9375 145.734375 C 136.246094 145.625 136.527344 145.472656 136.78125 145.269531 C 137.039062 145.066406 137.253906 144.828125 137.425781 144.550781 C 137.597656 144.277344 137.722656 143.980469 137.792969 143.664062 C 137.863281 143.34375 137.878906 143.023438 137.839844 142.703125 C 137.804688 142.378906 137.710938 142.070312 137.566406 141.78125 Z M 133.578125 136.578125 "></path>
            </g>
          </g>
        </g>
      </g>
      <g clip-rule="nonzero" clip-path="url(#369e91ddc0)">
        <g clip-rule="nonzero" clip-path="url(#9844142061)">
          <g clip-rule="nonzero" clip-path="url(#4af5970e2c)">
            <g clip-rule="nonzero" clip-path="url(#b27ce7ecc1)">
              <path style="stroke:none;fill-rule:nonzero;fill:#ffffff;fill-opacity:1;" d="M 90.765625 100.171875 C 91.824219 100.027344 92.875 99.828125 93.910156 99.570312 C 97.078125 98.757812 99.925781 97.320312 102.457031 95.253906 C 101.082031 112.796875 101.742188 130.261719 104.429688 147.648438 C 107.269531 168.625 130.265625 179.320312 163.050781 174.878906 C 195.835938 170.4375 215.167969 153.894531 212.34375 133.027344 L 212.324219 132.886719 C 210.289062 115.480469 206.285156 98.535156 200.308594 82.054688 C 203.328125 83.382812 206.488281 84.027344 209.789062 83.988281 C 210.855469 83.960938 211.921875 83.871094 212.980469 83.726562 C 220.644531 82.6875 229.144531 78.667969 232.230469 71.242188 C 232.382812 70.8125 232.425781 70.371094 232.367188 69.917969 C 232.304688 69.464844 232.144531 69.050781 231.882812 68.675781 C 229.078125 65.0625 225.777344 61.96875 221.984375 59.402344 C 218.191406 56.835938 214.089844 54.917969 209.683594 53.652344 C 206.195312 52.792969 202.652344 52.316406 199.0625 52.21875 C 203.164062 44.226562 207.011719 34.347656 205.417969 27.5 C 205.121094 26.070312 204.542969 24.765625 203.6875 23.585938 C 202.828125 22.40625 201.765625 21.453125 200.5 20.726562 C 190.554688 15.15625 174.710938 34.933594 168.359375 43.746094 C 164.636719 42.332031 160.792969 41.417969 156.832031 41.003906 C 152.871094 40.59375 148.921094 40.695312 144.984375 41.3125 C 141.027344 41.757812 137.191406 42.699219 133.480469 44.140625 C 129.769531 45.582031 126.308594 47.476562 123.09375 49.820312 C 114.550781 42.910156 94.273438 28.257812 86.03125 36.292969 C 84.996094 37.324219 84.226562 38.519531 83.710938 39.878906 C 83.195312 41.242188 82.988281 42.648438 83.082031 44.101562 C 83.371094 51.125 89.710938 59.625 95.789062 66.238281 C 92.351562 67.289062 89.066406 68.691406 85.933594 70.445312 C 82.019531 72.839844 78.578125 75.777344 75.605469 79.261719 C 72.628906 82.746094 70.273438 86.605469 68.53125 90.835938 C 68.378906 91.265625 68.332031 91.707031 68.394531 92.160156 C 68.457031 92.613281 68.617188 93.027344 68.878906 93.402344 C 73.832031 99.5625 83.101562 101.207031 90.765625 100.171875 Z M 170.902344 71.882812 C 171.402344 71.816406 171.902344 71.796875 172.402344 71.828125 C 172.90625 71.859375 173.398438 71.9375 173.882812 72.066406 C 174.371094 72.195312 174.839844 72.367188 175.289062 72.589844 C 175.742188 72.808594 176.167969 73.070312 176.566406 73.375 C 176.964844 73.679688 177.332031 74.019531 177.664062 74.394531 C 177.996094 74.769531 178.289062 75.171875 178.542969 75.605469 C 178.792969 76.039062 179.003906 76.492188 179.164062 76.96875 C 179.328125 77.441406 179.441406 77.925781 179.507812 78.421875 C 179.574219 78.917969 179.59375 79.417969 179.5625 79.917969 C 179.527344 80.417969 179.449219 80.910156 179.320312 81.394531 C 179.191406 81.878906 179.015625 82.347656 178.792969 82.796875 C 178.570312 83.246094 178.308594 83.671875 178.003906 84.070312 C 177.695312 84.46875 177.355469 84.832031 176.976562 85.164062 C 176.601562 85.496094 176.195312 85.785156 175.757812 86.039062 C 175.324219 86.289062 174.867188 86.496094 174.394531 86.65625 C 173.917969 86.820312 173.429688 86.933594 172.929688 87 C 172.433594 87.066406 171.933594 87.082031 171.429688 87.050781 C 170.929688 87.019531 170.4375 86.9375 169.949219 86.808594 C 169.464844 86.679688 168.996094 86.503906 168.546875 86.285156 C 168.09375 86.0625 167.671875 85.800781 167.269531 85.496094 C 166.871094 85.191406 166.507812 84.851562 166.175781 84.472656 C 165.84375 84.097656 165.554688 83.691406 165.300781 83.257812 C 165.050781 82.824219 164.84375 82.371094 164.683594 81.898438 C 164.519531 81.421875 164.40625 80.9375 164.34375 80.441406 C 164.277344 79.945312 164.261719 79.449219 164.292969 78.949219 C 164.324219 78.449219 164.40625 77.960938 164.535156 77.476562 C 164.667969 76.996094 164.839844 76.527344 165.0625 76.082031 C 165.285156 75.632812 165.546875 75.210938 165.851562 74.8125 C 166.15625 74.414062 166.496094 74.050781 166.871094 73.722656 C 167.246094 73.390625 167.652344 73.101562 168.085938 72.847656 C 168.519531 72.597656 168.972656 72.390625 169.445312 72.230469 C 169.921875 72.066406 170.40625 71.953125 170.902344 71.882812 Z M 121.574219 86.234375 C 121.507812 85.738281 121.492188 85.242188 121.523438 84.746094 C 121.558594 84.25 121.636719 83.761719 121.769531 83.277344 C 121.898438 82.796875 122.074219 82.332031 122.292969 81.886719 C 122.515625 81.4375 122.777344 81.015625 123.082031 80.621094 C 123.386719 80.226562 123.726562 79.863281 124.101562 79.53125 C 124.476562 79.203125 124.882812 78.914062 125.316406 78.664062 C 125.746094 78.414062 126.199219 78.210938 126.675781 78.046875 C 127.148438 77.886719 127.632812 77.773438 128.128906 77.707031 C 128.625 77.640625 129.121094 77.625 129.621094 77.65625 C 130.117188 77.6875 130.609375 77.769531 131.09375 77.898438 C 131.574219 78.023438 132.042969 78.199219 132.492188 78.417969 C 132.9375 78.636719 133.363281 78.898438 133.757812 79.199219 C 134.15625 79.503906 134.519531 79.839844 134.851562 80.214844 C 135.179688 80.589844 135.472656 80.992188 135.722656 81.421875 C 135.972656 81.855469 136.179688 82.304688 136.339844 82.777344 C 136.503906 83.25 136.617188 83.730469 136.683594 84.226562 C 136.75 84.71875 136.765625 85.214844 136.734375 85.710938 C 136.703125 86.210938 136.625 86.699219 136.496094 87.179688 C 136.367188 87.664062 136.191406 88.128906 135.972656 88.574219 C 135.753906 89.023438 135.492188 89.445312 135.1875 89.84375 C 134.882812 90.238281 134.546875 90.601562 134.171875 90.933594 C 133.796875 91.261719 133.390625 91.554688 132.960938 91.804688 C 132.527344 92.054688 132.074219 92.261719 131.601562 92.421875 C 131.128906 92.585938 130.644531 92.699219 130.148438 92.765625 C 129.652344 92.835938 129.152344 92.851562 128.652344 92.820312 C 128.152344 92.792969 127.660156 92.710938 127.175781 92.582031 C 126.6875 92.457031 126.222656 92.28125 125.769531 92.0625 C 125.320312 91.84375 124.898438 91.582031 124.5 91.277344 C 124.101562 90.972656 123.734375 90.632812 123.402344 90.257812 C 123.074219 89.882812 122.78125 89.480469 122.53125 89.046875 C 122.28125 88.613281 122.074219 88.160156 121.914062 87.6875 C 121.75 87.214844 121.636719 86.730469 121.574219 86.234375 Z M 162.355469 169.316406 C 139.980469 172.347656 112.839844 168.273438 109.929688 146.789062 C 107.292969 127.332031 126.898438 108.539062 153.628906 104.917969 C 180.359375 101.296875 204.230469 114.199219 206.882812 133.769531 C 209.777344 155.140625 184.671875 166.292969 162.355469 169.316406 Z M 162.355469 169.316406 "></path>
            </g>
          </g>
        </g>
      </g>
    </g>
    <g style="fill:#ffffff;fill-opacity:1;"></g>
    <g style="fill:#ffffff;fill-opacity:1;"></g>
    <g style="fill:#ffffff;fill-opacity:1;"></g>
  </g>
</svg>